<svg width="400px" height="400px" viewBox="0 0 400 400" version="1.1" xmlns="http://www.w3.org/2000/svg" xmlns:xlink="http://www.w3.org/1999/xlink">
  <defs>
    <linearGradient x1="0%" y1="50%" x2="100%" y2="50%" id="shadeGradientLight">
      <stop stop-color="#C5DDE6" offset="0%"></stop>
      <stop stop-color="#AEC4CD" offset="16.67%"></stop>
      <stop stop-color="#98AAB4" offset="33.33%"></stop>
      <stop stop-color="#81919A" offset="50%"></stop>
      <stop stop-color="#6B7781" offset="66.67%"></stop>
      <stop stop-color="#545E68" offset="83.33%"></stop>
      <stop stop-color="#3E444F" offset="100%"></stop>
    </linearGradient>
    <linearGradient x1="0%" y1="50%" x2="100%" y2="50%" id="shadeGradientDark">
      <stop stop-color="#576068" offset="0%"></stop>
      <stop stop-color="#697981" offset="16.67%"></stop>
      <stop stop-color="#7C919A" offset="33.33%"></stop>
      <stop stop-color="#8FAAB4" offset="50%"></stop>
      <stop stop-color="#A2C2CD" offset="66.67%"></stop>
      <stop stop-color="#B4DBE6" offset="83.33%"></stop>
      <stop stop-color="#C7F3FF" offset="100%"></stop>
    </linearGradient>
  </defs>
  <g id="light">
    <rect fill="#DBF7FF" x="0" y="0" width="400" height="200"></rect>
    <rect fill="#E11418" x="28" y="28" width="74" height="37"></rect>
    <rect fill="#E0530D" x="118" y="28" width="74" height="37"></rect>
    <rect fill="#D2A623" x="208" y="28" width="74" height="37"></rect>
    <rect fill="#61AB16" x="298" y="28" width="74" height="37"></rect>
    <rect fill="#06B38B" x="28" y="81" width="74" height="37"></rect>
    <rect fill="#34A4E7" x="118" y="81" width="74" height="37"></rect>
    <rect fill="#A549CD" x="208" y="81" width="74" height="37"></rect>
    <rect fill="#CC52AD" x="298" y="81" width="74" height="37"></rect>
    <rect fill="url(#shadeGradientLight)" x="28" y="134" width="344" height="37"></rect>
  </g>
  <g id="dark" transform="translate(0.000000, 200.000000)">
    <rect fill="#44484F" x="0" y="0" width="400" height="200"></rect>
    <rect fill="#F59597" x="28" y="28" width="74" height="37"></rect>
    <rect fill="#F2B494" x="118" y="28" width="74" height="37"></rect>
    <rect fill="#F2DB94" x="208" y="28" width="74" height="37"></rect>
    <rect fill="#C8F29D" x="298" y="28" width="74" height="37"></rect>
    <rect fill="#94F2DD" x="28" y="81" width="74" height="37"></rect>
    <rect fill="#94CEF2" x="118" y="81" width="74" height="37"></rect>
    <rect fill="#DB9CF7" x="208" y="81" width="74" height="37"></rect>
    <rect fill="#F79CE0" x="298" y="81" width="74" height="37"></rect>
    <rect fill="url(#shadeGradientDark)" x="28" y="134" width="344" height="37"></rect>
  </g>
</svg>