
        <svg width="400px" height="400px" viewBox="0 0 400 400" version="1.1" xmlns="http://www.w3.org/2000/svg" xmlns:xlink="http://www.w3.org/1999/xlink">
          <defs>
            <linearGradient x1="0%" y1="50%" x2="100%" y2="50%" id="shadeGradientLight">
              <stop stop-color="#c5dde6" offset="0%"></stop>
              <stop stop-color="#aec4cd" offset="16.67%"></stop>
              <stop stop-color="#98aab4" offset="33.33%"></stop>
              <stop stop-color="#81919a" offset="50%"></stop>
              <stop stop-color="#6b7781" offset="66.67%"></stop>
              <stop stop-color="#545e68" offset="83.33%"></stop>
              <stop stop-color="#3e444f" offset="100%"></stop>
            </linearGradient>
            <linearGradient x1="0%" y1="50%" x2="100%" y2="50%" id="shadeGradientDark">
              <stop stop-color="#576068" offset="0%"></stop>
              <stop stop-color="#697981" offset="16.67%"></stop>
              <stop stop-color="#7c919a" offset="33.33%"></stop>
              <stop stop-color="#8faab4" offset="50%"></stop>
              <stop stop-color="#a2c2cd" offset="66.67%"></stop>
              <stop stop-color="#b4dbe6" offset="83.33%"></stop>
              <stop stop-color="#c7f3ff" offset="100%"></stop>
            </linearGradient>
          </defs>
          <g id="light">
            <rect fill="#dbf7ff" x="0" y="0" width="400" height="200"></rect>
            <rect fill="#e11418" x="28" y="28" width="74" height="37"></rect>
            <rect fill="#e0530d" x="118" y="28" width="74" height="37"></rect>
            <rect fill="#d2a623" x="208" y="28" width="74" height="37"></rect>
            <rect fill="#61ab16" x="298" y="28" width="74" height="37"></rect>
            <rect fill="#06b38b" x="28" y="81" width="74" height="37"></rect>
            <rect fill="#34a4e7" x="118" y="81" width="74" height="37"></rect>
            <rect fill="#a549cd" x="208" y="81" width="74" height="37"></rect>
            <rect fill="#cc52ad" x="298" y="81" width="74" height="37"></rect>
            <rect fill="url(#shadeGradientLight)" x="28" y="134" width="344" height="37"></rect>
          </g>
          <g id="dark" transform="translate(0.000000, 200.000000)">
            <rect fill="#44484f" x="0" y="0" width="400" height="200"></rect>
            <rect fill="#f59597" x="28" y="28" width="74" height="37"></rect>
            <rect fill="#f2b494" x="118" y="28" width="74" height="37"></rect>
            <rect fill="#f2db94" x="208" y="28" width="74" height="37"></rect>
            <rect fill="#c8f29d" x="298" y="28" width="74" height="37"></rect>
            <rect fill="#94f2dd" x="28" y="81" width="74" height="37"></rect>
            <rect fill="#94cef2" x="118" y="81" width="74" height="37"></rect>
            <rect fill="#db9cf7" x="208" y="81" width="74" height="37"></rect>
            <rect fill="#f79ce0" x="298" y="81" width="74" height="37"></rect>
            <rect fill="url(#shadeGradientDark)" x="28" y="134" width="344" height="37"></rect>
          </g>
        </svg>
      